PathFileType	4	(X/Y/Z)	S01_0009_Gait_markers.trc
DataRate	CameraRate	NumFrames	NumMarkers	Units	OrigDataRate	OrigDataStartFrame	OrigNumFrames
250.000000	250.000000	4	54	mm	250.000000	85	343
Frame#	Time	HEAD_ANT			R_HEAD			L_HEAD			C7			R_BACK			L_BACK			STERNUM			R_ACROMION			R_HUM_PROX			R_HUM_ANT			R_HUM_POST			R_ELBOW_LAT			R_ELBOW_MED			R_FOREARM			R_WIRST_LAT			R_WRITS_MED			R_HAND			L_ACROMION			L_HUM_PROX			L_HUM_ANT			L_HUM_POST			L_ELBOW_LAT			L_ELBOW_MED			L_FOREARM			L_WRIST_LAT			L_WIRST_MED			L_HAND			R_ILIAC			SACRUM			L_ILIAC			R_GTROCH			R_THIGH__1			R_THIGH_2			R_THIGH_3			R_THIGH_4			R_SHANK_1			R_SHANK_2			R_SHANK_3			R_SHANK_4			R_HEEL			R_FOOT_LAT			R_FOOT_MED			L_GTROCH			L_THIGH_1			L_THIGH_2			L_THIGH_3			L_THIGH_4			L_SHANK_1			L_SHANK_2			L_SHANK_3			L_SHANK_4			L_HEEL			L_FOOT_LAT			L_FOOT_MED			
		X1	Y1	Z1	X2	Y2	Z2	X3	Y3	Z3	X4	Y4	Z4	X5	Y5	Z5	X6	Y6	Z6	X7	Y7	Z7	X8	Y8	Z8	X9	Y9	Z9	X10	Y10	Z10	X11	Y11	Z11	X12	Y12	Z12	X13	Y13	Z13	X14	Y14	Z14	X15	Y15	Z15	X16	Y16	Z16	X17	Y17	Z17	X18	Y18	Z18	X19	Y19	Z19	X20	Y20	Z20	X21	Y21	Z21	X22	Y22	Z22	X23	Y23	Z23	X24	Y24	Z24	X25	Y25	Z25	X26	Y26	Z26	X27	Y27	Z27	X28	Y28	Z28	X29	Y29	Z29	X30	Y30	Z30	X31	Y31	Z31	X32	Y32	Z32	X33	Y33	Z33	X34	Y34	Z34	X35	Y35	Z35	X36	Y36	Z36	X37	Y37	Z37	X38	Y38	Z38	X39	Y39	Z39	X40	Y40	Z40	X41	Y41	Z41	X42	Y42	Z42	X43	Y43	Z43	X44	Y44	Z44	X45	Y45	Z45	X46	Y46	Z46	X47	Y47	Z47	X48	Y48	Z48	X49	Y49	Z49	X50	Y50	Z50	X51	Y51	Z51	X52	Y52	Z52	X53	Y53	Z53	X54	Y54	Z54	

86	0.34	605.8060302734375	1737.77294921875	-269.8839111328121	551.09326171875	1681.607055664062	-193.4061431884762	547.0540161132812	1691.055419921875	-341.1107482910152	415.15283203125	1512.580078125	-272.5654907226559	349.8122863769531	1311.127319335938	-211.0929870605466	343.4248657226562	1319.691040039062	-350.7170104980466	596.1452026367188	1353.601684570312	-280.9160156249997	497.4053649902344	1460.33447265625	-104.4514770507809	473.9791259765625	1296.939453125	-17.97021293640108	542.003662109375	1216.032470703125	-21.73175621032688	422.2364196777344	1209.28662109375	-1.440122604369849	477.5798645019531	1106.985229492188	-2.82458090782141	441.735595703125	1103.314208984375	-77.97844696044898	584.8875122070312	928.2391967773438	-17.23700332641581	622.8936767578125	865.9711303710938	-61.18999481201153	558.355712890625	838.1696166992188	-19.02107238769513	631.9937133789062	775.1862182617188	-9.480191230773753	492.3770141601562	1473.459106445312	-443.7787170410153	473.0483703613281	1308.999755859375	-542.7110595703122	536.1560668945312	1229.478881835938	-544.314758300781	415.6905517578125	1231.346313476563	-570.4782104492185	476.8614196777344	1126.866577148438	-580.0610351562498	423.8094177246094	1118.639526367188	-522.916076660156	591.239013671875	957.8432617187501	-565.6572265624998	627.6763305664062	901.5528564453126	-516.3118896484373	583.6188354492188	873.3344726562501	-578.2055664062498	668.7472534179688	834.4994506835939	-568.4901123046873	503.9200134277344	1065.446533203125	-123.1379547119138	372.0501098632812	1034.882446289062	-291.9508666992185	485.2182312011719	1055.088500976562	-468.4804687499998	471.4322814941406	923.9215087890625	-106.7487869262693	553.6715698242188	646.3453979492188	-137.3585205078124	606.6971435546875	671.7777099609375	-137.8514556884764	624.7435302734375	573.2767944335938	-178.9819488525389	561.6909790039062	567.1880493164062	-161.4784698486327	551.800048828125	342.8833312988282	-164.3842468261718	604.7111206054688	320.4844055175782	-184.353530883789	595.62548828125	237.122543334961	-203.7103271484374	533.5180053710938	245.2605438232422	-187.7251892089843	476.2908630371094	41.51339340209967	-274.2257690429688	640.0703735351562	19.23164367675786	-189.9830322265625	694.2635498046875	31.94761276245124	-292.3432922363281	453.1318664550781	935.0528564453126	-470.2772216796873	562.9021606445312	653.4686279296876	-478.3283386230467	507.8839111328125	671.4230957031251	-485.9634399414061	501.49169921875	566.4255371093751	-466.8200378417968	564.9808349609375	571.6169433593751	-466.4454040527343	389.3277587890625	355.2839355468751	-466.7243652343749	336.6317138671875	385.8988647460939	-465.5888061523436	269.8785400390625	330.7898559570314	-449.6907348632812	316.0103149414062	285.2958068847657	-446.8258666992187	107.2712936401367	240.6295623779298	-378.1025085449218	187.8701324462891	91.49256896972666	-452.0211181640625	210.0417938232422	69.72701263427743	-354.9551696777344	
87	0.344	611.4036254882812	1738.795532226562	-269.5874023437496	556.7937622070312	1682.46337890625	-193.1832122802731	552.4978637695312	1692.0703125	-340.8154602050777	420.7814636230469	1513.651733398438	-272.1474609374997	355.6283874511719	1312.012084960938	-210.7036590576169	349.0924987792969	1320.249267578125	-350.0079650878903	601.6555786132812	1354.76416015625	-281.1530761718747	503.2557373046875	1461.43896484375	-104.2934951782223	480.6025085449219	1298.093383789062	-17.72511863708467	548.7616577148438	1217.472534179688	-22.15513610839817	429.106201171875	1210.22021484375	-0.9721653461453612	484.5789489746094	1108.306762695312	-2.604384422302	448.6630249023438	1104.38623046875	-77.65905761718726	592.8463745117188	929.9879150390625	-17.89374923706034	630.79443359375	867.9591064453125	-61.01000213623028	566.9068603515625	839.7487182617188	-19.57093429565411	640.8182983398438	777.1661376953125	-10.40874671936018	497.5448608398438	1474.698608398438	-443.5608215332028	477.7489624023438	1310.015747070313	-542.5170288085934	540.8649291992188	1230.593994140625	-544.0469970703123	419.8627624511719	1232.395629882813	-569.9519042968748	481.620361328125	1127.844360351563	-579.7900390624998	428.361572265625	1119.870361328125	-522.6366577148435	595.1427001953125	958.4627075195314	-565.7340087890623	631.2531127929688	901.9671630859376	-516.8586425781248	587.2177124023438	874.2287597656251	-578.625793457031	672.0808715820312	834.3803100585939	-568.4766845703123	509.6154174804688	1067.129150390625	-123.0019683837888	377.3733215332031	1036.030029296875	-291.5746765136716	491.0593566894531	1056.744140625	-467.9129333496091	476.0245056152344	924.7152099609375	-106.1605834960936	556.0614624023438	646.7658081054688	-137.108444213867	609.244140625	671.7070922851562	-138.1861877441405	626.5936889648438	573.0509033203125	-178.4613494873046	563.4591674804688	567.5380859375	-161.1155853271483	552.697509765625	342.9466857910157	-164.1095428466796	605.4835815429688	320.4839477539063	-184.2674102783202	596.1694946289062	237.0275115966797	-204.1257171630859	534.0623168945312	245.2209014892578	-187.8170318603515	476.2745361328125	41.67693710327155	-274.1777954101562	640.0509033203125	19.17474365234379	-189.9215698242188	694.2862548828125	31.95842361450202	-292.2852478027344	457.9638061523438	936.3601074218751	-470.4986572265623	571.8607788085938	654.8798828125001	-478.7633666992186	516.5474243164062	672.8212890625001	-485.9919128417967	511.1333312988281	567.4139404296876	-466.877716064453	574.3763427734375	573.2869262695314	-466.4983520507811	400.4095764160156	356.1280517578126	-466.6714782714843	347.4207153320312	386.3122863769532	-465.4078674316405	281.0270080566406	331.1179504394532	-449.6022644042968	327.23095703125	285.9937744140626	-447.1810302734374	118.8534088134766	238.8653106689454	-378.2522277832031	201.9607391357422	91.03218841552744	-451.7471313476562	224.6959686279297	69.58486938476571	-355.2104187011719	
88	0.348	617.030517578125	1739.68896484375	-269.4999389648434	562.4987182617188	1683.326171875	-192.979095458984	558.068603515625	1693.236328125	-340.5386352539059	426.235595703125	1514.570922851562	-271.8912658691403	361.2364807128906	1313.290405273438	-210.5713958740232	354.4479370117188	1321.062866210938	-349.1300659179685	607.195556640625	1355.845825195312	-281.5999450683591	509.1155700683594	1462.692016601562	-104.2310409545895	487.1607971191406	1299.2705078125	-17.55850982665987	555.5135498046875	1218.778564453125	-22.42607116699192	436.0935363769531	1211.196899414062	-0.4173438251015835	492.1509094238281	1109.296508789062	-2.416324853896848	455.5228881835938	1105.46875	-77.26893615722632	600.7110595703125	931.6134643554688	-18.55317115783671	638.65673828125	869.724365234375	-62.00518798828106	575.4171752929688	841.2589721679688	-19.98017692565899	649.6139526367188	779.2610473632812	-11.52008438110334	502.3942565917969	1475.778076171875	-443.5754089355465	482.6971130371094	1311.21875	-542.2082519531247	545.6858520507812	1231.37744140625	-544.0488281249998	425.1683654785156	1233.483032226563	-569.6239624023435	486.2821350097656	1129.027221679688	-579.5346679687498	432.9635314941406	1121.245727539063	-522.276916503906	599.0703735351562	959.0267333984376	-565.9160156249998	634.8892822265625	902.4067993164064	-518.0677490234373	590.9407348632812	875.0230712890626	-579.0084228515623	675.4093627929688	834.4284057617189	-568.928527832031	515.4401245117188	1068.67431640625	-122.959403991699	382.9599609375	1036.919677734375	-291.1128845214841	496.6183471679688	1058.24267578125	-467.2460327148435	480.8371276855469	925.5462036132812	-105.9174728393553	558.5645141601562	647.122314453125	-136.7870330810545	612.2402954101562	671.7453002929688	-136.9379730224608	628.27685546875	572.6707153320312	-178.0812225341796	565.6707763671875	568.6093139648438	-160.729034423828	553.5254516601562	342.9937438964844	-163.7760162353515	606.2247924804688	320.5119018554688	-184.102066040039	596.6738891601562	236.936752319336	-204.0998382568359	534.6983032226562	245.5440216064453	-187.7483978271484	476.2884826660156	41.84561920166022	-274.1585083007812	640.0642700195312	19.1546897888184	-189.7681121826172	694.3460693359375	32.02201080322272	-292.2153930664062	463.4472045898438	937.4301757812501	-470.199035644531	580.6455078125	656.8428344726564	-478.6394042968748	525.0639038085938	673.8974609375001	-485.5292053222655	520.520751953125	568.6381225585939	-466.5139770507811	584.0203857421875	575.1564941406251	-466.0795898437499	411.6339111328125	357.0357055664064	-466.5494995117187	358.4154968261719	386.332977294922	-465.0417175292968	292.2918701171875	330.8000488281251	-449.5994262695312	338.8646850585938	286.4124145507814	-447.1624755859374	130.4099578857422	236.9332275390626	-378.3561401367187	216.1569671630859	89.94229125976572	-451.241943359375	239.3244476318359	69.51268768310555	-354.7730407714844	
89	0.352	622.623291015625	1740.790283203125	-269.2905273437496	568.0678100585938	1684.352783203125	-192.9175415039059	563.6399536132812	1694.245483398438	-340.417083740234	431.6960144042969	1515.615844726562	-271.5887451171872	367.0501098632812	1314.094116210938	-210.1754150390622	360.0963134765625	1321.780639648438	-348.2090148925778	612.6444091796875	1356.9521484375	-281.5471496582028	514.8565063476562	1463.81298828125	-104.2039871215817	493.7021789550781	1300.43310546875	-17.37383460998506	562.3238525390625	1220.271850585938	-23.20290184020969	443.0299987792969	1212.161376953125	-0.01852833665880468	499.1389465332031	1110.497192382812	-2.131768226623289	461.7815551757812	1106.701049804688	-76.94596862792945	608.7227172851562	933.3544921875	-19.2040786743162	646.5855102539062	871.7530517578125	-62.99525451660137	583.6581420898438	842.8833618164062	-20.53208732604962	658.4620361328125	781.2230224609375	-12.51889514923078	507.5448608398438	1476.905883789062	-443.3139038085934	487.5061645507812	1312.211791992188	-542.0398559570309	550.3724975585938	1232.673950195313	-544.842590332031	429.37744140625	1234.419677734375	-568.8107299804685	490.7365112304688	1130.309814453125	-579.2274780273435	437.6214599609375	1122.290161132813	-522.0966186523435	602.9962158203125	959.7340087890626	-566.077941894531	638.4434814453125	902.5848388671876	-518.326477050781	594.4415893554688	875.8175048828126	-579.6334838867185	678.6204223632812	834.4926757812501	-568.9830932617185	518.462158203125	1069.633056640625	-122.273254394531	388.0296936035156	1038.205322265625	-289.9501647949216	501.8432006835938	1059.96337890625	-466.7336730957029	485.1083068847656	926.3086547851562	-105.3115234374998	560.9804077148438	647.5968017578125	-136.3909912109374	614.571533203125	671.595458984375	-137.3659515380858	630.0054931640625	572.4241943359375	-177.6560211181639	567.3687133789062	568.9952392578125	-160.4193267822264	554.2568969726562	343.1465454101563	-163.5006103515624	606.8726196289062	320.5052490234376	-183.866714477539	597.2005004882812	237.2109069824219	-203.2095489501953	535.2380981445312	245.8185272216797	-187.2405548095703	476.3341369628906	42.03506851196295	-274.1031799316406	640.0425415039062	19.11740112304692	-189.650146484375	694.3194580078125	31.98707771301276	-292.1699829101562	470.0580444335938	938.9122314453126	-469.2179870605466	590.074951171875	658.4595336914064	-478.2051696777342	533.7655029296875	675.2512207031251	-485.2412719726561	529.5864868164062	570.0899047851564	-466.5536804199218	593.2555541992188	576.8417968750001	-465.8114929199218	422.6269836425781	357.7228393554689	-466.5499877929687	369.2047424316406	386.7205810546876	-465.2028808593749	303.7384033203125	330.446746826172	-449.4346923828124	350.4752807617188	286.2252502441407	-447.2352905273437	142.3774871826172	234.7694549560548	-378.6395874023437	230.6133575439453	89.01239013671885	-450.8021545410156	254.0684967041016	69.44325256347665	-353.9750671386719	
